{
	"asset":{
		"generator":"Khronos glTF Blender I/O v4.2.57",
		"version":"2.0"
	},
	"scene":0,
	"scenes":[
		{
			"name":"Scene",
			"nodes":[
				0
			]
		}
	],
	"nodes":[
		{
			"mesh":0,
			"name":"exp-150"
		}
	],
	"meshes":[
		{
			"name":"exp-150.001",
			"primitives":[
				{
					"attributes":{
						"POSITION":0,
						"NORMAL":1
					},
					"indices":2
				}
			]
		}
	],
	"accessors":[
		{
			"bufferView":0,
			"componentType":5126,
			"count":199738,
			"max":[
				2.32985782623291,
				3.049436569213867,
				0.7526659369468689
			],
			"min":[
				-2.284193277359009,
				-1.4228614568710327,
				-0.33816832304000854
			],
			"type":"VEC3"
		},
		{
			"bufferView":1,
			"componentType":5126,
			"count":199738,
			"type":"VEC3"
		},
		{
			"bufferView":2,
			"componentType":5125,
			"count":202650,
			"type":"SCALAR"
		}
	],
	"bufferViews":[
		{
			"buffer":0,
			"byteLength":2396856,
			"byteOffset":0,
			"target":34962
		},
		{
			"buffer":0,
			"byteLength":2396856,
			"byteOffset":2396856,
			"target":34962
		},
		{
			"buffer":0,
			"byteLength":810600,
			"byteOffset":4793712,
			"target":34963
		}
	],
	"buffers":[
		{
			"byteLength":5604312,
			"uri":"exp-150.bin"
		}
	]
}
