{
	"asset":{
		"generator":"Khronos glTF Blender I/O v4.2.57",
		"version":"2.0"
	},
	"scene":0,
	"scenes":[
		{
			"name":"Scene",
			"nodes":[
				0
			]
		}
	],
	"nodes":[
		{
			"mesh":0,
			"name":"exp-150"
		}
	],
	"meshes":[
		{
			"name":"exp-150.001",
			"primitives":[
				{
					"attributes":{
						"POSITION":0,
						"NORMAL":1
					},
					"indices":2
				}
			]
		}
	],
	"accessors":[
		{
			"bufferView":0,
			"componentType":5126,
			"count":89276,
			"max":[
				2.32985782623291,
				3.0493528842926025,
				0.7534648776054382
			],
			"min":[
				-2.2872238159179688,
				-1.4228614568710327,
				-0.33816832304000854
			],
			"type":"VEC3"
		},
		{
			"bufferView":1,
			"componentType":5126,
			"count":89276,
			"type":"VEC3"
		},
		{
			"bufferView":2,
			"componentType":5125,
			"count":89562,
			"type":"SCALAR"
		}
	],
	"bufferViews":[
		{
			"buffer":0,
			"byteLength":1071312,
			"byteOffset":0,
			"target":34962
		},
		{
			"buffer":0,
			"byteLength":1071312,
			"byteOffset":1071312,
			"target":34962
		},
		{
			"buffer":0,
			"byteLength":358248,
			"byteOffset":2142624,
			"target":34963
		}
	],
	"buffers":[
		{
			"byteLength":2500872,
			"uri":"exp-150.bin"
		}
	]
}
